<svg width="177" height="39" viewBox="0 0 177 39" fill="none" xmlns="http://www.w3.org/2000/svg">
<path d="M10.6667 30.7917C12.0014 30.7917 13.0833 29.7097 13.0833 28.375C13.0833 27.0403 12.0014 25.9583 10.6667 25.9583C9.33198 25.9583 8.25 27.0403 8.25 28.375C8.25 29.7097 9.33198 30.7917 10.6667 30.7917Z" stroke="#3F3F3F" stroke-width="2.8" stroke-linecap="round" stroke-linejoin="round"/>
<path d="M25.1667 30.7917C26.5014 30.7917 27.5833 29.7097 27.5833 28.375C27.5833 27.0403 26.5014 25.9583 25.1667 25.9583C23.832 25.9583 22.75 27.0403 22.75 28.375C22.75 29.7097 23.832 30.7917 25.1667 30.7917Z" stroke="#3F3F3F" stroke-width="2.8" stroke-linecap="round" stroke-linejoin="round"/>
<path d="M7.85117 10.25H28.7916L26.7616 20.3879C26.6511 20.9442 26.3484 21.4439 25.9066 21.7996C25.4648 22.1553 24.912 22.3442 24.3449 22.3333H11.5728C10.9828 22.3383 10.4113 22.1273 9.96612 21.74C9.52095 21.3527 9.23286 20.8159 9.15617 20.2308L7.3195 6.31083C7.24334 5.72991 6.95872 5.19643 6.51862 4.80968C6.07852 4.42292 5.5129 4.20922 4.927 4.20833H2.20825" stroke="#3F3F3F" stroke-width="2.8" stroke-linecap="round" stroke-linejoin="round"/>
<path d="M67.384 29L58.328 17.672L66.808 7.656H61.208L53.656 17.192V7.656H49.112V29H53.656V22.44L55.32 20.456L61.784 29H67.384ZM75.9727 29.384C81.0928 29.384 84.1648 25.672 84.1648 21.256C84.1648 16.872 81.0928 13.16 75.9727 13.16C70.8847 13.16 67.8127 16.872 67.8127 21.256C67.8127 25.672 70.8847 29.384 75.9727 29.384ZM75.9727 25.768C73.4447 25.768 72.0367 23.688 72.0367 21.256C72.0367 18.856 73.4447 16.776 75.9727 16.776C78.5008 16.776 79.9408 18.856 79.9408 21.256C79.9408 23.688 78.5008 25.768 75.9727 25.768ZM96.3317 29.384C100.3 29.384 103.18 26.408 103.18 21.256C103.18 16.104 100.3 13.16 96.3317 13.16C94.4437 13.16 92.7477 13.992 91.5637 15.496V13.544H87.4997V34.888H91.5637V27.016C92.8117 28.616 94.5077 29.384 96.3317 29.384ZM95.0518 25.768C93.7397 25.768 92.2357 24.968 91.5637 24.008V18.536C92.2357 17.544 93.7397 16.776 95.0518 16.776C97.3877 16.776 98.9558 18.6 98.9558 21.256C98.9558 23.944 97.3877 25.768 95.0518 25.768ZM112.108 29.384C116.716 29.384 119.564 27.464 119.564 24.744C119.564 22.408 117.1 21.192 115.212 21.064C117.26 20.744 119.244 19.4 119.244 17.416C119.244 14.792 116.524 13.16 111.692 13.192C108.876 13.192 106.636 14.248 105.132 15.752L107.116 18.152C108.332 16.968 109.9 16.392 111.916 16.392C113.74 16.392 115.02 17.032 115.02 17.96C115.02 19.048 113.964 19.624 111.852 19.624H108.684V22.76H111.852C113.964 22.76 115.308 23.304 115.308 24.488C115.308 25.48 114.188 26.152 112.108 26.152C110.252 26.152 108.204 25.608 106.764 24.392L104.908 26.92C106.412 28.392 108.908 29.384 112.108 29.384ZM126.825 29L133.385 19.304V29H137.449V13.544H133.353L126.985 22.888V13.544H122.921V29H126.825ZM145.867 29V22.824H152.267V29H156.331V13.544H152.267V19.272H145.867V13.544H141.803V29H145.867ZM174.03 29V19.016C174.03 14.568 170.798 13.16 167.278 13.16C164.846 13.16 162.414 13.928 160.526 15.592L162.062 18.312C163.374 17.096 164.91 16.488 166.574 16.488C168.622 16.488 169.966 17.512 169.966 19.08V21.16C168.942 19.944 167.118 19.272 165.07 19.272C162.606 19.272 159.694 20.648 159.694 24.264C159.694 27.72 162.606 29.384 165.07 29.384C167.086 29.384 168.91 28.648 169.966 27.4V29H174.03ZM166.702 26.632C165.102 26.632 163.79 25.8 163.79 24.36C163.79 22.856 165.102 22.024 166.702 22.024C168.014 22.024 169.294 22.472 169.966 23.368V25.288C169.294 26.184 168.014 26.632 166.702 26.632Z" fill="black"/>
</svg>
